<?xml version="1.0" encoding="utf-8"?>
<!-- Generator: Adobe Illustrator 28.0.0, SVG Export Plug-In . SVG Version: 6.00 Build 0)  -->
<svg version="1.1" id="Layer_1" xmlns="http://www.w3.org/2000/svg" xmlns:xlink="http://www.w3.org/1999/xlink" x="0px" y="0px"
	 viewBox="0 0 134.1 161.2" style="enable-background:new 0 0 134.1 161.2;" xml:space="preserve">
<style type="text/css">
	.st0{fill:#B4893A;}
</style>
<g>
	<path class="st0" d="M97.2,125.1l-6.5-6.6c-8.7,4.4-18,6.6-28.1,6.6c-17.3,0-32.1-6-44.3-18S0,80.3,0,62.6s6.1-32.5,18.3-44.5
		S45.3,0,62.6,0c17.2,0,32,6,44.2,18.1s18.3,26.8,18.3,44.5c0,6.3-0.8,12.3-2.5,17.9H93.4c2.8-5.2,4.2-11.2,4.2-17.9
		c0-10.8-3.4-19.4-10.2-26s-15-9.8-24.9-9.8s-18.1,3.3-24.9,9.8s-10.2,15.2-10.2,26s3.4,19.4,10.2,26s15.1,9.8,24.9,9.8
		c2.9,0,5.7-0.3,8.4-0.8L42.3,67.8h36.6c18.4,19.1,36.8,38.3,55.2,57.4H97.2V125.1z"/>
</g>
<g>
	<path d="M26.8,160.8v-26.6h10.4c2.3,0,4.3,0.7,5.9,2.1c1.7,1.4,2.5,3.2,2.5,5.5c0,2.2-0.8,3.9-2.3,5.2c2.2,1.3,3.3,3.3,3.3,6
		c0,2.4-0.8,4.2-2.5,5.7c-1.7,1.4-3.7,2.1-6.1,2.1H26.8z M37.2,144.6c1.4,0,2.1-0.8,2.3-2.4c0-1.4-0.8-2.2-2.3-2.4h-4.3v4.7
		L37.2,144.6L37.2,144.6z M37.9,155.1c1.5,0,2.4-0.9,2.5-2.6c0-1.5-0.8-2.3-2.5-2.5h-5.1v5.1H37.9z"/>
	<path d="M52.2,158.8c-1.9-1.6-2.9-3.9-2.9-6.7v-18h6.1v17.5c0,2.5,1.4,3.7,4.2,3.7s4.2-1.2,4.2-3.7v-17.5h6.1v18
		c0,5.7-3.4,8.7-10.2,9.1C56.6,161.2,54.2,160.4,52.2,158.8z"/>
	<path d="M72.6,160.8v-26.6h10.6c3.7,0,6.7,1.3,9.2,3.8s3.7,5.7,3.7,9.5s-1.2,6.9-3.7,9.5c-2.5,2.5-5.5,3.8-9.2,3.8H72.6z
		 M83.2,154.9c4.2,0,6.5-2.5,7.1-7.4c0-4.5-2.4-7-7.1-7.4h-4.6V155h4.6V154.9z"/>
	<path d="M100.2,161.2v-5.9h7.3c2.4,0,3.6-0.7,3.6-2.2c0-0.8-0.4-1.4-1.3-1.9c-0.8-0.5-2.2-0.9-4.2-1.5c-2.1-0.5-3.9-1.3-5.5-2.5
		s-2.4-3-2.4-5.6s0.9-4.5,2.7-6c1.8-1.4,3.9-2.1,6.2-2.1h7.3v5.9h-7.3c-1.9,0-2.9,0.7-2.9,2c0,0.6,0.3,1.2,0.9,1.7s1.9,1,3.9,1.7
		c2.1,0.5,4.1,1.3,5.9,2.4c1.8,1.1,2.7,3,2.7,5.8c0,5.1-3.2,7.8-9.7,8.2L100.2,161.2L100.2,161.2z"/>
</g>
</svg>
